<svg width="32" height="32" viewBox="0 0 56 52" fill="none" xmlns="http://www.w3.org/2000/svg">
<path d="M27.5653 4.29272C14.9298 4.29272 4.64363 13.9048 4.63904 25.7226C4.63675 29.5002 5.69465 33.188 7.70036 36.4375L4.58974 47.2196L16.5975 44.566C19.9457 46.2745 23.7149 47.1713 27.5519 47.1734H27.5609C40.1941 47.1734 50.4758 37.5592 50.4827 25.7436C50.4873 20.015 48.1055 14.6289 43.7774 10.5766C39.4492 6.5265 33.6972 4.29487 27.5653 4.29272ZM27.5609 8.58541C32.4627 8.58755 37.0693 10.375 40.5323 13.6117C43.9952 16.8527 45.8975 21.1591 45.8929 25.7394C45.8884 35.1919 37.6676 42.8808 27.5564 42.8808C24.4973 42.8786 21.4672 42.1602 18.7982 40.7973L17.2519 40.0092L15.5442 40.3865L11.0261 41.3842L12.1287 37.5526L12.6263 35.8339L11.6761 34.2912C10.0742 31.6984 9.22649 28.7339 9.22878 25.7226C9.23337 16.2744 17.4565 8.58541 27.5609 8.58541ZM19.4526 15.8293C19.0694 15.8293 18.4497 15.9635 17.9242 16.5C17.3987 17.0345 15.9162 18.3289 15.9162 20.9646C15.9162 23.6003 17.969 26.1481 18.2559 26.5065C18.5404 26.8628 22.2184 32.4425 28.0405 34.5888C32.878 36.3724 33.8606 36.0204 34.9116 35.9303C35.9627 35.8423 38.3024 34.637 38.7797 33.3857C39.2571 32.1344 39.2582 31.058 39.1159 30.8369C38.9736 30.6137 38.5915 30.4806 38.0178 30.2123C37.4464 29.944 34.6304 28.6507 34.1048 28.4726C33.5793 28.2945 33.1949 28.2043 32.814 28.7409C32.433 29.2775 31.3382 30.4806 31.0032 30.8369C30.6681 31.1954 30.3353 31.2436 29.7616 30.9753C29.1879 30.7048 27.3433 30.1377 25.1539 28.3133C23.4511 26.8946 22.3022 25.1441 21.9671 24.6075C21.6344 24.0731 21.9357 23.7795 22.2226 23.5134C22.4796 23.273 22.7918 22.8877 23.0787 22.5744C23.3633 22.261 23.4619 22.0377 23.6524 21.6814C23.8429 21.3252 23.7454 21.0107 23.6031 20.7424C23.4608 20.4741 22.3466 17.8286 21.8371 16.7683C21.408 15.8776 20.9548 15.8569 20.5463 15.8419C20.2135 15.829 19.8336 15.8293 19.4526 15.8293Z" fill="white"/>
</svg>
