<svg width="50" height="60" viewBox="0 0 103 90" fill="none" xmlns="http://www.w3.org/2000/svg">
<path d="M50.6487 80.1077V10.0862L85.9752 18.4267C81.9463 56.3485 74.1106 69.7108 50.6487 80.1077Z" fill="#001E40" stroke="#001E40" stroke-width="3"/>
<path d="M47.6209 20.7348C40.9108 21.3775 35.3137 25.3663 33.1207 31.0848C32.4333 32.8902 32.2369 34.3647 32.2369 37.8148V40.2063H31.4514C29.7384 40.2063 28.5164 41.2079 28.2 42.8621C28.1346 43.2593 28.0909 47.4179 28.0909 54.668C28.0909 66.8707 28.08 66.6341 28.7128 67.6268C28.8765 67.8914 29.2038 68.2506 29.4329 68.4302C30.3167 69.0823 28.8656 69.035 49.5847 69.035C70.3039 69.035 68.8529 69.0823 69.7365 68.4302C69.9655 68.2506 70.2928 67.8914 70.4567 67.6268C71.0896 66.6341 71.0785 66.8707 71.0785 54.668C71.0785 47.4179 71.0347 43.2593 70.9695 42.8621C70.6529 41.2079 69.4309 40.2063 67.7289 40.2063H66.9325V37.8148C66.9325 34.3647 66.7359 32.8902 66.0485 31.0848C64.7287 27.6632 62.2954 24.9221 58.8258 22.9655C57.0914 21.9825 55.1382 21.3019 52.9343 20.9238C51.6685 20.7064 48.9412 20.6024 47.6209 20.7348ZM51.1122 27.011C55.1271 27.5781 58.2805 30.064 59.4152 33.5424C59.6332 34.2324 59.6659 34.5538 59.7098 37.2476L59.7532 40.2063H49.5847H39.416L39.4597 37.2476C39.5033 34.5538 39.5361 34.2324 39.7543 33.5424C40.8671 30.1113 44.0201 27.6065 47.9482 27.0205C49.0501 26.8598 49.9992 26.8503 51.1122 27.011ZM50.6866 47.7679C53.9273 48.297 55.4765 51.8415 53.4578 54.1292L53.0871 54.5543L53.0543 58.0802C53.0216 61.4168 53.0105 61.6341 52.8032 61.9367C52.6832 62.1163 52.4432 62.3432 52.2797 62.4565C51.9852 62.6454 51.843 62.6551 49.5847 62.6551C47.3264 62.6551 47.1842 62.6454 46.8897 62.4565C46.7262 62.3432 46.4862 62.1163 46.3662 61.9367C46.1589 61.6341 46.1478 61.4168 46.115 58.0802L46.0823 54.5543L45.7116 54.1292C44.3368 52.5697 44.5547 50.2254 46.2134 48.8172C47.3481 47.8528 48.9301 47.4843 50.6866 47.7679Z" fill="url(#paint0_linear_222_238)"/>
<path d="M1.85908 41.1207C1.61392 41.1207 1.36195 41.0772 1.10318 40.9903C0.8444 40.9034 0.626483 40.7855 0.449425 40.6365C0.272367 40.4876 0.183838 40.3138 0.183838 40.1151C0.183838 40.0779 0.190648 40.0158 0.204268 39.9289L4.14721 28.2165C4.24255 27.9434 4.45366 27.7386 4.78053 27.602C5.12103 27.4655 5.48195 27.3972 5.86331 27.3972C6.25828 27.3972 6.61921 27.4655 6.94609 27.602C7.27296 27.7386 7.48407 27.9434 7.57941 28.2165L11.5224 39.9289C11.5496 40.0158 11.5632 40.0779 11.5632 40.1151C11.5632 40.3014 11.4679 40.4751 11.2772 40.6365C11.1001 40.7855 10.8822 40.9034 10.6234 40.9903C10.3647 41.0772 10.1127 41.1207 9.86754 41.1207C9.64962 41.1207 9.45895 41.0896 9.29551 41.0276C9.14569 40.9531 9.04354 40.8227 8.98906 40.6365L8.21273 38.16H3.51389L2.75799 40.6365C2.70351 40.8227 2.59455 40.9531 2.43111 41.0276C2.26767 41.0896 2.07699 41.1207 1.85908 41.1207ZM4.08592 36.2607H7.6407L5.86331 30.5441L4.08592 36.2607ZM15.5515 41.1207C15.1974 41.1207 14.9113 41.0462 14.6934 40.8972C14.4891 40.7483 14.387 40.5682 14.387 40.3572V28.2724C14.387 28.0614 14.4891 27.8814 14.6934 27.7324C14.9113 27.5834 15.1974 27.5089 15.5515 27.5089H19.1675C20.0801 27.5089 20.8973 27.6517 21.6191 27.9372C22.341 28.2103 22.913 28.6634 23.3352 29.2965C23.7711 29.9172 23.989 30.7489 23.989 31.7917V36.8379C23.989 37.8807 23.7711 38.7186 23.3352 39.3517C22.913 39.9724 22.341 40.4255 21.6191 40.711C20.8973 40.9841 20.0801 41.1207 19.1675 41.1207H15.5515ZM17.0429 38.9979H19.1675C19.8485 38.9979 20.3797 38.8241 20.7611 38.4765C21.1424 38.1165 21.3331 37.5703 21.3331 36.8379V31.7917C21.3331 31.0593 21.1424 30.5193 20.7611 30.1717C20.3797 29.8117 19.8553 29.6317 19.188 29.6317H17.0429V38.9979ZM32.3254 41.2324C31.9441 41.2324 31.5831 41.1641 31.2426 41.0276C30.9158 40.891 30.7115 40.6862 30.6297 40.4131L26.6664 28.7007C26.6391 28.6138 26.6255 28.5517 26.6255 28.5145C26.6255 28.3158 26.714 28.142 26.8911 27.9931C27.0682 27.8441 27.2861 27.7262 27.5449 27.6393C27.8172 27.5524 28.076 27.5089 28.3212 27.5089C28.5391 27.5089 28.7298 27.5462 28.8932 27.6207C29.0567 27.6827 29.1588 27.8069 29.1997 27.9931L32.3254 38.0855L35.4307 27.9931C35.4988 27.8069 35.6078 27.6827 35.7576 27.6207C35.9211 27.5462 36.1117 27.5089 36.3296 27.5089C36.5748 27.5089 36.8268 27.5524 37.0855 27.6393C37.3443 27.7262 37.5622 27.8441 37.7393 27.9931C37.93 28.142 38.0253 28.3158 38.0253 28.5145C38.0253 28.5393 38.0185 28.5703 38.0049 28.6076C38.0049 28.6324 37.9981 28.6634 37.9845 28.7007L34.0415 40.4131C33.9598 40.6862 33.7487 40.891 33.4082 41.0276C33.0813 41.1641 32.7204 41.2324 32.3254 41.2324ZM40.7243 41.1207C40.4791 41.1207 40.2272 41.0772 39.9684 40.9903C39.7096 40.9034 39.4917 40.7855 39.3146 40.6365C39.1376 40.4876 39.0491 40.3138 39.0491 40.1151C39.0491 40.0779 39.0559 40.0158 39.0695 39.9289L43.0123 28.2165C43.1076 27.9434 43.3187 27.7386 43.6456 27.602C43.9861 27.4655 44.347 27.3972 44.7284 27.3972C45.1233 27.3972 45.4843 27.4655 45.8111 27.602C46.138 27.7386 46.3491 27.9434 46.4445 28.2165L50.3874 39.9289C50.4146 40.0158 50.4283 40.0779 50.4283 40.1151C50.4283 40.3014 50.3329 40.4751 50.1422 40.6365C49.9652 40.7855 49.7473 40.9034 49.4885 40.9903C49.2297 41.0772 48.9777 41.1207 48.7326 41.1207C48.5147 41.1207 48.324 41.0896 48.1606 41.0276C48.0107 40.9531 47.9086 40.8227 47.8541 40.6365L47.0778 38.16H42.3791L41.6232 40.6365C41.5687 40.8227 41.4598 40.9531 41.2963 41.0276C41.1329 41.0896 40.9422 41.1207 40.7243 41.1207ZM42.951 36.2607H46.5057L44.7284 30.5441L42.951 36.2607ZM54.5802 41.1207C54.2533 41.1207 53.9469 41.0586 53.6608 40.9345C53.3884 40.7979 53.2522 40.5993 53.2522 40.3386V28.2724C53.2522 28.0117 53.3884 27.8193 53.6608 27.6951C53.9469 27.571 54.2533 27.5089 54.5802 27.5089C54.9071 27.5089 55.1726 27.54 55.3769 27.602C55.5949 27.6641 55.7923 27.7883 55.9694 27.9745C56.1601 28.1483 56.3576 28.4214 56.5619 28.7938L60.5048 35.7393V28.2724C60.5048 27.9993 60.641 27.8069 60.9134 27.6951C61.1994 27.571 61.5059 27.5089 61.8327 27.5089C62.1732 27.5089 62.4797 27.571 62.7521 27.6951C63.0245 27.8069 63.1607 27.9993 63.1607 28.2724V40.3386C63.1607 40.5993 63.0245 40.7979 62.7521 40.9345C62.4797 41.0586 62.1732 41.1207 61.8327 41.1207C61.5195 41.1207 61.2267 41.0648 60.9543 40.9531C60.6955 40.8414 60.4844 40.6427 60.3209 40.3572L55.9081 32.8717V40.3386C55.9081 40.5993 55.7719 40.7979 55.4995 40.9345C55.2271 41.0586 54.9207 41.1207 54.5802 41.1207ZM71.6275 41.2324C70.7831 41.2324 70 41.0958 69.2781 40.8227C68.5563 40.5372 67.9774 40.0841 67.5416 39.4634C67.1194 38.8303 66.9083 37.9924 66.9083 36.9496V31.7917C66.9083 30.7489 67.1194 29.9172 67.5416 29.2965C67.9774 28.6634 68.5563 28.2103 69.2781 27.9372C70 27.6517 70.7899 27.5089 71.648 27.5089C72.6013 27.5089 73.439 27.6579 74.1608 27.9558C74.8963 28.2414 75.4683 28.6448 75.8769 29.1662C76.2991 29.6876 76.5102 30.3145 76.5102 31.0469C76.5102 31.531 76.4013 31.8538 76.1834 32.0151C75.9654 32.1641 75.6318 32.2386 75.1823 32.2386C74.8146 32.2386 74.5013 32.1827 74.2425 32.071C73.9974 31.9469 73.868 31.7483 73.8544 31.4751C73.8544 31.3262 73.8271 31.1524 73.7727 30.9538C73.7318 30.7427 73.6433 30.5379 73.5071 30.3393C73.3709 30.1407 73.1598 29.9731 72.8737 29.8365C72.6013 29.7 72.22 29.6317 71.7297 29.6317C71.0351 29.6317 70.5039 29.8117 70.1362 30.1717C69.7684 30.5193 69.5846 31.0593 69.5846 31.7917V36.9496C69.5846 37.6945 69.7684 38.2407 70.1362 38.5883C70.5175 38.9358 71.0623 39.1096 71.7705 39.1096C72.2336 39.1096 72.6013 39.0414 72.8737 38.9048C73.1461 38.7683 73.3436 38.6007 73.4662 38.402C73.6024 38.191 73.6909 37.9738 73.7318 37.7503C73.7863 37.5269 73.8271 37.3158 73.8544 37.1172C73.8816 36.8193 74.0178 36.6207 74.263 36.5214C74.5081 36.4096 74.8078 36.3538 75.1619 36.3538C75.6249 36.3538 75.9654 36.4345 76.1834 36.5958C76.4013 36.7572 76.5102 37.0738 76.5102 37.5455C76.5102 38.2903 76.2991 38.942 75.8769 39.5007C75.4683 40.0593 74.8963 40.4876 74.1608 40.7855C73.4254 41.0834 72.5809 41.2324 71.6275 41.2324ZM80.9188 41.1207C80.6328 41.1207 80.3672 41.0586 80.1221 40.9345C79.8769 40.7979 79.7543 40.5993 79.7543 40.3386V28.291C79.7543 28.0303 79.8769 27.8379 80.1221 27.7138C80.3672 27.5772 80.6328 27.5089 80.9188 27.5089H88.1918C88.4914 27.5089 88.7025 27.6207 88.8251 27.8441C88.9613 28.0676 89.0294 28.3034 89.0294 28.5517C89.0294 28.8496 88.9545 29.1041 88.8047 29.3151C88.6685 29.5262 88.4642 29.6317 88.1918 29.6317H82.4102V33.3558H85.5155C85.7879 33.3558 85.9922 33.4551 86.1284 33.6538C86.2782 33.84 86.3531 34.0634 86.3531 34.3241C86.3531 34.5351 86.285 34.7462 86.1488 34.9572C86.0263 35.1558 85.8151 35.2551 85.5155 35.2551H82.4102V38.9979H88.1918C88.4642 38.9979 88.6685 39.1034 88.8047 39.3145C88.9545 39.5255 89.0294 39.78 89.0294 40.0779C89.0294 40.3262 88.9613 40.562 88.8251 40.7855C88.7025 41.0089 88.4914 41.1207 88.1918 41.1207H80.9188ZM93.1822 41.1207C92.8281 41.1207 92.5421 41.0462 92.3241 40.8972C92.1199 40.7483 92.0177 40.5682 92.0177 40.3572V28.2724C92.0177 28.0614 92.1199 27.8814 92.3241 27.7324C92.5421 27.5834 92.8281 27.5089 93.1822 27.5089H96.7983C97.7108 27.5089 98.528 27.6517 99.2498 27.9372C99.9717 28.2103 100.544 28.6634 100.966 29.2965C101.402 29.9172 101.62 30.7489 101.62 31.7917V36.8379C101.62 37.8807 101.402 38.7186 100.966 39.3517C100.544 39.9724 99.9717 40.4255 99.2498 40.711C98.528 40.9841 97.7108 41.1207 96.7983 41.1207H93.1822ZM94.6736 38.9979H96.7983C97.4793 38.9979 98.0104 38.8241 98.3918 38.4765C98.7731 38.1165 98.9638 37.5703 98.9638 36.8379V31.7917C98.9638 31.0593 98.7731 30.5193 98.3918 30.1717C98.0104 29.8117 97.4861 29.6317 96.8187 29.6317H94.6736V38.9979Z" fill="url(#paint1_linear_222_238)"/>
<path d="M37.6997 58.9655C37.3592 58.9655 37.0528 58.9034 36.7804 58.7793C36.508 58.6427 36.3718 58.4441 36.3718 58.1834V47.5324H33.3686C33.1098 47.5324 32.9056 47.4207 32.7557 47.1972C32.6059 46.9738 32.531 46.7193 32.531 46.4338C32.531 46.1731 32.5991 45.931 32.7353 45.7076C32.8715 45.4717 33.0826 45.3538 33.3686 45.3538H42.0104C42.31 45.3538 42.5212 45.4717 42.6437 45.7076C42.7799 45.931 42.848 46.1731 42.848 46.4338C42.848 46.7193 42.7731 46.9738 42.6233 47.1972C42.4871 47.4207 42.2828 47.5324 42.0104 47.5324H39.0277V58.1834C39.0277 58.4441 38.8847 58.6427 38.5986 58.7793C38.3262 58.9034 38.0266 58.9655 37.6997 58.9655ZM46.8612 58.9655C46.5752 58.9655 46.3096 58.9034 46.0644 58.7793C45.8193 58.6427 45.6967 58.4441 45.6967 58.1834V46.1358C45.6967 45.8751 45.8193 45.6827 46.0644 45.5586C46.3096 45.422 46.5752 45.3538 46.8612 45.3538H54.1342C54.4338 45.3538 54.6449 45.4655 54.7675 45.6889C54.9037 45.9124 54.9718 46.1482 54.9718 46.3965C54.9718 46.6944 54.8969 46.9489 54.7471 47.16C54.6109 47.371 54.4066 47.4765 54.1342 47.4765H48.3526V51.2007H51.4579C51.7303 51.2007 51.9346 51.3 52.0708 51.4986C52.2206 51.6848 52.2955 51.9082 52.2955 52.1689C52.2955 52.38 52.2274 52.591 52.0912 52.802C51.9686 53.0007 51.7575 53.1 51.4579 53.1H48.3526V56.8427H54.1342C54.4066 56.8427 54.6109 56.9482 54.7471 57.1593C54.8969 57.3703 54.9718 57.6248 54.9718 57.9227C54.9718 58.171 54.9037 58.4069 54.7675 58.6303C54.6449 58.8538 54.4338 58.9655 54.1342 58.9655H46.8612ZM62.3363 59.0772C61.4919 59.0772 60.7087 58.9407 59.9869 58.6676C59.265 58.382 58.6862 57.9289 58.2504 57.3082C57.8281 56.6751 57.617 55.8372 57.617 54.7944V49.6365C57.617 48.5938 57.8281 47.762 58.2504 47.1413C58.6862 46.5082 59.265 46.0551 59.9869 45.782C60.7087 45.4965 61.4987 45.3538 62.3567 45.3538C63.3101 45.3538 64.1477 45.5027 64.8696 45.8007C65.6051 46.0862 66.1771 46.4896 66.5857 47.011C67.0079 47.5324 67.219 48.1593 67.219 48.8917C67.219 49.3758 67.1101 49.6986 66.8921 49.86C66.6742 50.0089 66.3405 50.0834 65.8911 50.0834C65.5233 50.0834 65.2101 50.0276 64.9513 49.9158C64.7062 49.7917 64.5768 49.5931 64.5632 49.32C64.5632 49.171 64.5359 48.9972 64.4814 48.7986C64.4406 48.5876 64.352 48.3827 64.2159 48.1841C64.0797 47.9855 63.8685 47.8179 63.5825 47.6813C63.3101 47.5448 62.9288 47.4765 62.4385 47.4765C61.7438 47.4765 61.2127 47.6565 60.8449 48.0165C60.4772 48.3641 60.2933 48.9041 60.2933 49.6365V54.7944C60.2933 55.5393 60.4772 56.0855 60.8449 56.4331C61.2263 56.7807 61.7711 56.9544 62.4793 56.9544C62.9424 56.9544 63.3101 56.8862 63.5825 56.7496C63.8549 56.6131 64.0524 56.4455 64.175 56.2469C64.3112 56.0358 64.3997 55.8186 64.4406 55.5951C64.4951 55.3717 64.5359 55.1607 64.5632 54.962C64.5904 54.6641 64.7266 54.4655 64.9717 54.3662C65.2169 54.2544 65.5165 54.1986 65.8707 54.1986C66.3337 54.1986 66.6742 54.2793 66.8921 54.4407C67.1101 54.602 67.219 54.9186 67.219 55.3903C67.219 56.1351 67.0079 56.7869 66.5857 57.3455C66.1771 57.9041 65.6051 58.3324 64.8696 58.6303C64.1341 58.9282 63.2897 59.0772 62.3363 59.0772Z" fill="url(#paint2_linear_222_238)"/>
<path d="M12.1302 42.4784C15.3168 66.5379 25.7782 76.7828 52.3513 87.6724C74.9781 77.7708 84.8427 67.9717 92.1467 42.4784" stroke="#3E3B47"/>
<path d="M10.002 25.9914L8.93799 11.638L49.7975 2.32764L93.6363 11.638L92.9979 25.9914" stroke="#3E3B47"/>
<defs>
<linearGradient id="paint0_linear_222_238" x1="71.0785" y1="52.352" x2="28.0924" y2="51.8487" gradientUnits="userSpaceOnUse">
<stop offset="0.497553" stop-color="white"/>
<stop offset="0.49825" stop-color="#021B40"/>
<stop offset="0.625" stop-color="#454E5B"/>
</linearGradient>
<linearGradient id="paint1_linear_222_238" x1="51.5" y1="22.112" x2="51.5" y2="45.7758" gradientUnits="userSpaceOnUse">
<stop offset="0.34375" stop-color="#A4ACA5"/>
<stop offset="0.458333" stop-color="#D6D4CE"/>
<stop offset="0.600495" stop-color="#C8C7C1"/>
<stop offset="0.635417" stop-opacity="0.65"/>
<stop offset="0.680755" stop-color="#5F5F5D"/>
</linearGradient>
<linearGradient id="paint2_linear_222_238" x1="50.2232" y1="39.9569" x2="50.2232" y2="63.6207" gradientUnits="userSpaceOnUse">
<stop offset="0.536458" stop-color="#C8C7C1"/>
<stop offset="0.680755" stop-color="#5F5F5D"/>
</linearGradient>
</defs>
</svg>
